<svg width="1420" height="1024" viewBox="0 0 1420 1024" fill="none" xmlns="http://www.w3.org/2000/svg">
<g clip-path="url(#clip0_9_11)">
<path d="M824.752 596H775.252V545H824.752V511C824.752 494.333 825.919 479.333 828.252 466C830.585 452.333 834.919 440.667 841.252 431C847.919 421.333 857.085 414 868.752 409C880.419 403.667 895.585 401 914.252 401C927.919 401 940.585 402.167 952.252 404.5L948.252 455.5C943.919 454.5 939.752 453.667 935.752 453C931.752 452.333 927.585 452 923.252 452C914.919 452 908.252 453.333 903.252 456C898.252 458.667 894.252 462.333 891.252 467C888.585 471.333 886.752 476.5 885.752 482.5C885.085 488.5 884.752 494.833 884.752 501.5V545H940.252V596H884.752V785H824.752V596ZM979.252 545H1039.25V785H979.252V545ZM971.252 463.5C971.252 453.833 974.752 445.5 981.752 438.5C989.085 431.167 998.252 427.5 1009.25 427.5C1020.25 427.5 1029.42 431 1036.75 438C1044.42 444.667 1048.25 453.167 1048.25 463.5C1048.25 473.833 1044.42 482.5 1036.75 489.5C1029.42 496.167 1020.25 499.5 1009.25 499.5C998.252 499.5 989.085 496 981.752 489C974.752 481.667 971.252 473.167 971.252 463.5ZM1099.64 545H1156.64V583.5H1157.64C1163.31 571.5 1171.97 561.167 1183.64 552.5C1195.31 543.5 1211.14 539 1231.14 539C1247.14 539 1260.64 541.667 1271.64 547C1282.97 552.333 1292.14 559.333 1299.14 568C1306.14 576.667 1311.14 586.667 1314.14 598C1317.14 609.333 1318.64 621.167 1318.64 633.5V785H1258.64V663.5C1258.64 656.833 1258.31 649.5 1257.64 641.5C1256.97 633.167 1255.14 625.5 1252.14 618.5C1249.47 611.167 1245.14 605.167 1239.14 600.5C1233.14 595.5 1224.97 593 1214.64 593C1204.64 593 1196.14 594.667 1189.14 598C1182.47 601.333 1176.81 605.833 1172.14 611.5C1167.81 617.167 1164.64 623.667 1162.64 631C1160.64 638.333 1159.64 646 1159.64 654V785H1099.64V545Z" fill="white"/>
<path d="M578.066 969H484.066C430.066 969 390.733 956.333 366.066 931C341.4 905.667 329.066 869 329.066 821V792C254.4 778.667 195.066 742.333 151.066 683C107.733 623 86.0664 540.667 86.0664 436C86.0664 376.667 93.3997 324.667 108.066 280C122.733 234.667 143.4 197 170.066 167C196.733 136.333 229.066 113.333 267.066 98C305.066 82.6666 347.066 75 393.066 75C439.066 75 481.066 82.6666 519.066 98C557.066 113.333 589.4 136.333 616.066 167C642.733 197 663.4 234.667 678.066 280C692.733 324.667 700.066 376.667 700.066 436C700.066 537.333 679.4 617.667 638.066 677C597.4 736.333 541.733 773.667 471.066 789V845H578.066V969ZM393.066 662C439.066 662 474.733 647 500.066 617C526.066 587 539.066 544 539.066 488V384C539.066 328 526.066 285 500.066 255C474.733 225 439.066 210 393.066 210C347.066 210 311.066 225 285.066 255C259.733 285 247.066 328 247.066 384V488C247.066 544 259.733 587 285.066 617C311.066 647 347.066 662 393.066 662Z" fill="white"/>
</g>
<defs>
<clipPath id="clip0_9_11">
<rect width="1420" height="1024" fill="white"/>
</clipPath>
</defs>
</svg>
