<svg width="1024" height="1024" viewBox="0 0 1024 1024" fill="none" xmlns="http://www.w3.org/2000/svg">
<g clip-path="url(#clip0_1_9)">
<rect width="1024" height="1024" fill="#1D4ED8"/>
<path d="M650.8 879H580.3C539.8 879 510.3 869.5 491.8 850.5C473.3 831.5 464.05 804 464.05 768V746.25C408.05 736.25 363.55 709 330.55 664.5C298.05 619.5 281.8 557.75 281.8 479.25C281.8 434.75 287.3 395.75 298.3 362.25C309.3 328.25 324.8 300 344.8 277.5C364.8 254.5 389.05 237.25 417.55 225.75C446.05 214.25 477.55 208.5 512.05 208.5C546.55 208.5 578.05 214.25 606.55 225.75C635.05 237.25 659.3 254.5 679.3 277.5C699.3 300 714.8 328.25 725.8 362.25C736.8 395.75 742.3 434.75 742.3 479.25C742.3 555.25 726.8 615.5 695.8 660C665.3 704.5 623.55 732.5 570.55 744V786H650.8V879ZM512.05 648.75C546.55 648.75 573.3 637.5 592.3 615C611.8 592.5 621.55 560.25 621.55 518.25V440.25C621.55 398.25 611.8 366 592.3 343.5C573.3 321 546.55 309.75 512.05 309.75C477.55 309.75 450.55 321 431.05 343.5C412.05 366 402.55 398.25 402.55 440.25V518.25C402.55 560.25 412.05 592.5 431.05 615C450.55 637.5 477.55 648.75 512.05 648.75Z" fill="white"/>
</g>
<defs>
<clipPath id="clip0_1_9">
<rect width="1024" height="1024" fill="white"/>
</clipPath>
</defs>
</svg>
