<svg width="1024" height="1024" viewBox="0 0 1024 1024" fill="none" xmlns="http://www.w3.org/2000/svg">
<g clip-path="url(#clip0_9_14)">
<path d="M697.066 969H603.066C549.066 969 509.733 956.333 485.066 931C460.4 905.667 448.066 869 448.066 821V792C373.4 778.667 314.066 742.333 270.066 683C226.733 623 205.066 540.667 205.066 436C205.066 376.667 212.4 324.667 227.066 280C241.733 234.667 262.4 197 289.066 167C315.733 136.333 348.066 113.333 386.066 98C424.066 82.6666 466.066 75 512.066 75C558.066 75 600.066 82.6666 638.066 98C676.066 113.333 708.4 136.333 735.066 167C761.733 197 782.4 234.667 797.066 280C811.733 324.667 819.066 376.667 819.066 436C819.066 537.333 798.4 617.667 757.066 677C716.4 736.333 660.733 773.667 590.066 789V845H697.066V969ZM512.066 662C558.066 662 593.733 647 619.066 617C645.066 587 658.066 544 658.066 488V384C658.066 328 645.066 285 619.066 255C593.733 225 558.066 210 512.066 210C466.066 210 430.066 225 404.066 255C378.733 285 366.066 328 366.066 384V488C366.066 544 378.733 587 404.066 617C430.066 647 466.066 662 512.066 662Z" fill="white"/>
</g>
<defs>
<clipPath id="clip0_9_14">
<rect width="1024" height="1024" fill="white"/>
</clipPath>
</defs>
</svg>
