<?xml version="1.0" standalone="no"?>
<!DOCTYPE svg PUBLIC "-//W3C//DTD SVG 20010904//EN"
 "http://www.w3.org/TR/2001/REC-SVG-20010904/DTD/svg10.dtd">
<svg version="1.0" xmlns="http://www.w3.org/2000/svg"
 width="700.000000pt" height="700.000000pt" viewBox="0 0 700.000000 700.000000"
 preserveAspectRatio="xMidYMid meet">
<metadata>
Created by potrace 1.14, written by Peter Selinger 2001-2017
</metadata>
<g transform="translate(0.000000,700.000000) scale(0.100000,-0.100000)"
fill="#000000" stroke="none">
<path d="M3417 5574 c-1 -1 -42 -5 -91 -8 -254 -20 -509 -104 -707 -235 -108
-71 -235 -186 -298 -271 -14 -19 -29 -37 -32 -40 -15 -12 -100 -152 -137 -225
-123 -245 -186 -482 -217 -820 -7 -73 -7 -429 0 -505 7 -82 17 -173 20 -192 2
-9 6 -38 10 -65 11 -77 63 -281 97 -373 132 -366 380 -650 708 -811 112 -54
258 -104 369 -124 13 -2 25 -5 26 -7 1 -2 5 -70 8 -153 6 -155 16 -224 44
-310 79 -244 252 -380 546 -432 17 -3 179 -7 360 -10 l327 -5 0 319 0 319
-262 1 c-145 1 -269 2 -275 2 -10 1 -13 37 -13 144 l0 142 78 19 c214 53 442
183 603 345 171 172 294 373 374 616 45 134 62 215 99 455 23 151 24 563 1
730 -2 14 -6 45 -9 70 -3 25 -8 56 -11 70 -3 14 -8 41 -11 60 -21 135 -92 346
-171 505 -253 510 -702 776 -1331 789 -57 1 -104 1 -105 0z m174 -698 c294
-19 528 -220 613 -526 39 -141 44 -222 42 -650 -2 -228 -6 -435 -10 -460 -20
-128 -71 -274 -127 -360 -138 -213 -331 -312 -609 -312 -63 1 -126 3 -140 6
-14 3 -38 8 -55 12 -130 25 -270 109 -365 220 -65 75 -153 266 -151 329 0 2
-4 19 -10 37 -5 18 -12 60 -16 93 -10 79 -10 845 0 915 4 30 9 66 11 80 23
157 104 320 215 430 113 111 251 173 420 187 36 3 68 7 69 9 2 1 9 1 15 -1 7
-2 51 -6 98 -9z"/>
</g>
</svg>
